<?xml version="1.0" standalone="no"?><!DOCTYPE svg PUBLIC "-//W3C//DTD SVG 1.1//EN" "http://www.w3.org/Graphics/SVG/1.1/DTD/svg11.dtd"><svg t="1638328257735" class="icon" viewBox="0 0 1024 1024" version="1.1" xmlns="http://www.w3.org/2000/svg" p-id="3049" xmlns:xlink="http://www.w3.org/1999/xlink" width="64" height="64"><defs><style type="text/css"></style></defs><path d="M213.333333 640v170.666667h170.666667v128H128a42.666667 42.666667 0 0 1-42.666667-42.666667v-256z m725.333334 0v256a42.666667 42.666667 0 0 1-37.546667 42.666667H640v-128h170.666667v-170.666667zM512 384a128 128 0 1 1-128 128 128 128 0 0 1 128-128z m384-298.666667a42.666667 42.666667 0 0 1 42.666667 42.666667v256h-128V213.333333h-170.666667V85.333333zM384 85.333333v128H213.333333v170.666667H85.333333V128a42.666667 42.666667 0 0 1 37.546667-42.666667H384z m0 0" fill="#ffffff" p-id="3050"></path></svg>