<svg id="图层_1" data-name="图层 1" xmlns="http://www.w3.org/2000/svg" viewBox="0 0 16 16"><defs><style>.cls-1{fill:#fff;}</style></defs><title>时间演变svg</title><path class="cls-1" d="M14.13,6.67,13,6.42a5.14,5.14,0,0,0-.33-.8l.61-1a1,1,0,0,0,0-1.24l-.62-.62A.85.85,0,0,0,12,2.51a1.17,1.17,0,0,0-.65.2l-1,.63A5.29,5.29,0,0,0,9.61,3L9.36,1.87A1,1,0,0,0,8.44,1H7.56c-.48,0-.78.46-.87.88L6.41,3a5.16,5.16,0,0,0-.85.36l-1-.64a1.17,1.17,0,0,0-.65-.2.86.86,0,0,0-.62.24l-.62.62a1,1,0,0,0,0,1.24L3.3,5.67A5.34,5.34,0,0,0,3,6.42l-1.12.25A1,1,0,0,0,1,7.6v.87c0,.48.46.78.87.88L3,9.63a5.37,5.37,0,0,0,.29.7l-.64,1.07a1,1,0,0,0,0,1.24l.62.62a.85.85,0,0,0,.62.24,1.16,1.16,0,0,0,.65-.2l1-.64a5.25,5.25,0,0,0,.86.36l.28,1.12c.1.42.39.87.88.87h.87a1,1,0,0,0,.92-.87L9.62,13a5.32,5.32,0,0,0,.79-.33l1,.63a1.17,1.17,0,0,0,.65.2.85.85,0,0,0,.62-.24l.62-.62a1,1,0,0,0,0-1.24l-.61-1A5.33,5.33,0,0,0,13,9.63l1.14-.28c.42-.1.87-.39.87-.88V7.6a1,1,0,0,0-.87-.92ZM8,10.12A2.11,2.11,0,1,1,10.13,8,2.12,2.12,0,0,1,8,10.12Zm0,0"/></svg>