<?xml version="1.0" encoding="UTF-8"?>
<!DOCTYPE svg PUBLIC "-//W3C//DTD SVG 1.1//EN" "http://www.w3.org/Graphics/SVG/1.1/DTD/svg11.dtd">
<!-- Creator: CorelDRAW (评估版) -->
<svg xmlns="http://www.w3.org/2000/svg" xml:space="preserve" width="400px" height="400px" version="1.1"
    style="shape-rendering:geometricPrecision; text-rendering:geometricPrecision; image-rendering:optimizeQuality; fill-rule:evenodd; clip-rule:evenodd"
    viewBox="0 0 400 400" xmlns:xlink="http://www.w3.org/1999/xlink"
    xmlns:xodm="http://www.corel.com/coreldraw/odm/2003" xmlns:zondyPlotSymbol="https://www.mapgis.com"
    xmlns:zondyPlotSymbolItem="https://www.mapgis.com" zondyPlotSymbol:version="1.0" zondyPlotSymbol:id="svg003"
    zondyPlotSymbol:name="" zondyPlotSymbol:desc="" zondyPlotSymbol:type="doublearrow">
    <defs>
        <style type="text/css">
            <![CDATA[
            .str0 {
                stroke: #ED3237;
                stroke-width: 3.54;
                stroke-miterlimit: 22.9256
            }

            .fil0 {
                fill: none
            }
            ]]>
        </style>
    </defs>
    <g id="图层_x0020_1">
        <metadata id="CorelCorpID_0Corel-Layer" />
        <path class="fil0 str0"
            d="M308.79 52.56c-16.22,14.3 -36.36,26.56 -63.16,38.39m-15.03 6.61c-18.97,7.67 -36.43,12.55 -56.69,17.43m-14.18 2.26l-24.51 3.55 7.74 -9.02 -78.84 19.06 80.04 16.6 -8.7 -9.07 24.43 3.97m13.69 4.49c16.46,7.14 27.63,18.67 30.63,31.42m-0.06 14.49c-3.17,13.89 -14.86,27.55 -31.95,36.19m-11.56 4.31l-24.48 3.17 8.25 -8.58 -79.66 16.92 79.21 18.64 -7.78 -8.64 23.34 2.91m13.78 2.19c20.09,3.86 39.42,9.77 57.54,17.13m15.78 6.9c24.79,11.65 46.85,25.89 64.9,40.96" />
    </g>
</svg>