<?xml version="1.0" encoding="UTF-8" standalone="no"?>
<svg
        width="200"
        version="1.1"
        height="200"
        id="svg2"
        svg:version="1.0"
        svg:id="svg003"
        svg:name=""
        svg:desc=""
        svg:type="1"
        svg:pose="1"
        sodipodi:docname="模板 - 副本 (3).svg"
        inkscape:version="1.1 (c68e22c387, 2021-05-23)"
        xmlns:inkscape="http://www.inkscape.org/namespaces/inkscape"
        xmlns:sodipodi="http://sodipodi.sourceforge.net/DTD/sodipodi-0.dtd"
        xmlns="http://www.w3.org/2000/svg"
        xmlns:svg="http://www.w3.org/2000/svg">
  <defs
          id="defs5" />
  <sodipodi:namedview
          id="namedview3"
          pagecolor="#ffffff"
          bordercolor="#666666"
          borderopacity="1.0"
          inkscape:pageshadow="2"
          inkscape:pageopacity="0.0"
          inkscape:pagecheckerboard="0"
          showgrid="false"
          inkscape:zoom="6.1730422"
          inkscape:cx="135.67054"
          inkscape:cy="104.97255"
          inkscape:window-width="2560"
          inkscape:window-height="1377"
          inkscape:window-x="-8"
          inkscape:window-y="-8"
          inkscape:window-maximized="1"
          inkscape:current-layer="svg2" />
  <path
          sodipodi:type="star"
          style="fill:#800000;fill-opacity:1;stroke-width:34.6998"
          id="path1397"
          inkscape:flatsided="false"
          sodipodi:sides="5"
          sodipodi:cx="78.121416"
          sodipodi:cy="74.455897"
          sodipodi:r1="16.175152"
          sodipodi:r2="8.087575"
          sodipodi:arg1="0.27246315"
          sodipodi:arg2="0.90078168"
          inkscape:rounded="0"
          inkscape:randomized="0"
          d="m 93.69988,78.808701 -10.556102,1.986336 -4.348118,9.821951 -5.151133,-9.425639 -10.684872,-1.100156 7.372527,-7.811702 -2.255496,-10.501884 9.707605,4.597742 9.290899,-5.390365 -1.372897,10.653262 z"
          inkscape:transform-center-x="-0.20835333"
          inkscape:transform-center-y="1.3450912" />
  <path
          sodipodi:type="star"
          style="fill:#008000;fill-opacity:1;stroke-width:34.6998"
          id="path1399"
          inkscape:flatsided="false"
          sodipodi:sides="5"
          sodipodi:cx="49.713627"
          sodipodi:cy="101.94731"
          sodipodi:r1="13.328924"
          sodipodi:r2="6.6644621"
          sodipodi:arg1="2.6395025"
          sodipodi:arg2="3.267821"
          inkscape:rounded="0"
          inkscape:randomized="0"
          d="m 38.029778,108.36197 5.072411,-7.25367 -3.099776,-8.29075 8.466115,2.582641 6.927088,-5.510044 0.159935,8.849833 7.380952,4.88536 -8.367269,2.88685 -2.365409,8.52936 -5.331193,-7.06566 z"
          inkscape:transform-center-x="-0.76951361"
          inkscape:transform-center-y="0.51853774" />
  <path
          style="fill:none;stroke:#000000;stroke-width:1px;stroke-linecap:butt;stroke-linejoin:miter;stroke-opacity:1"
          d="M 20,20 H 180 V 180 H 20 Z"
          id="path1654"
          sodipodi:nodetypes="ccccc" />
  <path
          sodipodi:type="spiral"
          style="fill:none;fill-rule:evenodd;stroke:#000000"
          id="path1131"
          sodipodi:cx="120.03806"
          sodipodi:cy="115.34021"
          sodipodi:expansion="1"
          sodipodi:revolution="3"
          sodipodi:radius="14.737065"
          sodipodi:argument="-17.860664"
          sodipodi:t0="0"
          d="m 120.03806,115.34021 c 0.40611,0.61728 -0.63172,0.85197 -1.02596,0.67498 -1.06837,-0.47964 -0.95242,-1.95093 -0.32399,-2.72691 1.12412,-1.38805 3.24815,-1.13954 4.42785,0.027 1.73126,1.71194 1.3362,4.56442 -0.37799,6.1288 -2.28474,2.08507 -5.88763,1.53717 -7.82974,-0.72898 -2.44394,-2.85172 -1.74042,-7.21422 1.07997,-9.53069 3.41587,-2.80556 8.54269,-1.945 11.23163,1.43096 3.16882,3.97845 2.15042,9.87235 -1.78195,12.93257 -4.54007,3.53315 -11.20281,2.35639 -14.63352,-2.13293 -3.89819,-5.10106 -2.56275,-12.53382 2.48393,-16.33447 5.6616,-4.26374 13.86524,-2.76939 18.03541,2.83492 4.62967,6.22184 2.97624,15.19696 -3.18591,19.73635" />
  <path
          sodipodi:type="spiral"
          style="fill:none;fill-rule:evenodd;stroke:#000000"
          id="path1133"
          sodipodi:cx="118.25612"
          sodipodi:cy="70.46769"
          sodipodi:expansion="1"
          sodipodi:revolution="3"
          sodipodi:radius="19.964161"
          sodipodi:argument="-18.00675"
          sodipodi:t0="0"
          d="m 118.25612,70.46769 c 0.66602,0.747238 -0.67867,1.266438 -1.24196,1.106964 -1.52647,-0.432166 -1.66121,-2.426941 -0.97197,-3.590882 1.23289,-2.082017 4.12866,-2.167803 5.93981,-0.836975 2.65792,1.953043 2.69094,5.854018 0.70198,8.288727 -2.65099,3.245085 -7.58785,3.221242 -10.63765,0.566987 -3.83788,-3.34011 -3.75525,-9.32572 -0.432,-12.986574 4.02491,-4.433784 11.06589,-4.291412 15.3355,-0.296997 5.03159,4.707279 4.82893,12.807472 0.162,17.684419 -5.38815,5.630629 -14.55001,5.367347 -20.03334,0.02701 -6.23051,-6.068031 -5.9064,-16.293222 0.10799,-22.382266 6.74722,-6.830987 18.03691,-6.445904 24.73118,0.242981 7.43191,7.42593 6.98576,19.780981 -0.37797,27.080111" />
  <path
          sodipodi:type="star"
          style="stroke-width:34.6998"
          id="path1157"
          inkscape:flatsided="false"
          sodipodi:sides="5"
          sodipodi:cx="139.96339"
          sodipodi:cy="144.01328"
          sodipodi:r1="20.664326"
          sodipodi:r2="10.332162"
          sodipodi:arg1="0.85196633"
          sodipodi:arg2="1.4802849"
          inkscape:rounded="0"
          inkscape:randomized="0"
          d="m 153.57095,159.56477 -12.67365,-5.26163 -11.51929,7.45736 1.08773,-13.67929 -10.65202,-8.65104 13.3459,-3.19264 4.93597,-12.80399 7.16049,11.70612 13.70263,0.73774 -8.92048,10.42743 z"
          inkscape:transform-center-x="0.5771837"
          inkscape:transform-center-y="-1.4162558" />
  <rect
          style="stroke-width:34.6998;fill:#ff5555"
          id="rect1181"
          width="17.981409"
          height="15.713484"
          x="42.604603"
          y="40.174683" />
  <ellipse
          style="fill:#2a7fff;stroke-width:34.6998"
          id="path1346"
          cx="81.240334"
          cy="147.33417"
          rx="16.442461"
          ry="14.822514" />
</svg>
