<?xml version="1.0" standalone="no"?><!DOCTYPE svg PUBLIC "-//W3C//DTD SVG 1.1//EN" "http://www.w3.org/Graphics/SVG/1.1/DTD/svg11.dtd"><svg t="1629972754030" class="icon" viewBox="0 0 1024 1024" version="1.1" xmlns="http://www.w3.org/2000/svg" p-id="2234" xmlns:xlink="http://www.w3.org/1999/xlink" width="128" height="128"><defs><style type="text/css"></style></defs><path d="M510.691191 64.567551c-246.548232 0-447.125457 200.578248-447.125457 447.125457 0 246.543116 200.578248 447.125457 447.125457 447.125457 246.543116 0 447.125457-200.582341 447.125457-447.125457C957.816648 265.144776 757.234307 64.567551 510.691191 64.567551zM510.691191 863.489306c-193.982016 0-351.796298-157.814282-351.796298-351.796298s157.814282-351.796298 351.796298-351.796298S862.487489 317.710992 862.487489 511.693008 704.673208 863.489306 510.691191 863.489306z" p-id="2235" fill="#1296db"></path><path d="M510.691191 511.693008m-214.491119 0a209.606 209.606 0 1 0 428.982238 0 209.606 209.606 0 1 0-428.982238 0Z" p-id="2236" fill="#1296db"></path></svg>