<?xml version="1.0" standalone="no"?><!DOCTYPE svg PUBLIC "-//W3C//DTD SVG 1.1//EN" "http://www.w3.org/Graphics/SVG/1.1/DTD/svg11.dtd"><svg class="icon" width="128px" height="128.00px" viewBox="0 0 1024 1024" version="1.1" xmlns="http://www.w3.org/2000/svg"><path fill="#E4E4E4" d="M512 962c-60.728 0-119.665-11.904-175.175-35.384-53.592-22.667-101.711-55.107-143.022-96.418-41.311-41.312-73.751-89.431-96.418-143.022C73.905 631.665 62 572.728 62 512s11.905-119.665 35.384-175.175c22.667-53.592 55.107-101.711 96.418-143.022s89.431-73.751 143.022-96.418C392.335 73.905 451.272 62 512 62s119.665 11.905 175.176 35.384c53.592 22.667 101.711 55.107 143.022 96.418 41.311 41.311 73.751 89.431 96.418 143.022C950.096 392.335 962 451.272 962 512s-11.904 119.665-35.384 175.176c-22.667 53.592-55.107 101.711-96.418 143.022-41.312 41.311-89.431 73.751-143.022 96.418C631.665 950.096 572.728 962 512 962z m0-800c-192.991 0-350 157.009-350 350 0 192.99 157.009 350 350 350 192.99 0 350-157.01 350-350 0-192.991-157.01-350-350-350z" /></svg>