<?xml version="1.0" standalone="no"?><!DOCTYPE svg PUBLIC "-//W3C//DTD SVG 1.1//EN" "http://www.w3.org/Graphics/SVG/1.1/DTD/svg11.dtd"><svg class="icon" width="128px" height="128.00px" viewBox="0 0 1024 1024" version="1.1" xmlns="http://www.w3.org/2000/svg"><path fill="#E4E4E4" d="M512 802c-115.774 0-225.359-27.495-308.567-77.42-42.745-25.646-76.681-56.046-100.865-90.353C75.649 596.042 62 554.919 62 512c0-42.918 13.649-84.042 40.567-122.228 24.185-34.307 58.121-64.706 100.865-90.353C286.641 249.495 396.226 222 512 222s225.359 27.495 308.567 77.42c42.745 25.646 76.681 56.046 100.865 90.353C948.352 427.958 962 469.082 962 512c0 42.919-13.648 84.042-40.567 122.228-24.185 34.307-58.12 64.706-100.865 90.353C737.359 774.505 627.774 802 512 802z m0-480c-97.913 0-189.226 22.434-257.118 63.169C220.194 405.982 162 450.136 162 512c0 61.865 58.194 106.018 92.882 126.831C322.774 679.566 414.087 702 512 702s189.227-22.434 257.118-63.169C803.807 618.018 862 573.865 862 512c0-61.865-58.193-106.018-92.882-126.831C701.227 344.434 609.913 322 512 322z" /></svg>