<svg width="200" height="200" version="1.1" xmlns="http://www.w3.org/2000/svg"
    xmlns:zondyPlotSymbol="https://www.mapgis.com" xmlns:zondyPlotSymbolItem="https://www.mapgis.com"
    zondyPlotSymbol:version="1.0" zondyPlotSymbol:id="55" zondyPlotSymbol:name="" zondyPlotSymbol:desc=""
    zondyPlotSymbol:type="simplepoint" zondyPlotSymbol:pose="0">
    <path style="fill:none;stroke:#ff0000;stroke-width:3px;stroke-linecap:butt;stroke-linejoin:miter;stroke-opacity:1"
        id="path12770"
        d="M 20,45 C 20.495465,32.28975 26.481154,22.767308 45,20 h 110 c 14.49953,2.124074 23.28364,12.274698 25,25 v 110 c -0.12761,16.70652 -9.93547,23.53523 -25,25 H 45 C 30.901209,177.92915 21.587278,170.66095 20,155 Z">
    </path><text
        style="font-style:normal;font-weight:600;font-size:40px;line-height:1.25;font-family:sans-serif;fill:#ff0000;fill-opacity:1;stroke:none"
        id="text1967" x="57.994095" y="157.13484">
        <tspan id="tspan1965" x="57.994095" y="157.13484">踩踏</tspan>
    </text>
    <path style="stroke-width:1;stroke:#ff0000;fill:#ff0000;" id="path7"
        d="m 70.900257,58.579296 h 1.666317 c 2.663689,0 4.994544,-0.665644 6.992589,-2.330863 2.664786,-1.999143 3.99718,-4.663929 4.662824,-7.660436 0.33393,-3.330438 -0.665644,-6.328043 -2.330863,-8.660011 -3.996075,-5.328475 -11.323693,-6.326945 -16.319342,-2.330863 -5.328475,3.997179 -6.328043,11.323692 -2.330863,16.320446 1.998037,2.663689 4.661726,3.996083 7.659338,4.661727">
    </path>
    <path style="stroke-width:1;stroke:#ff0000;fill:#ff0000;" id="path9"
        d="m 125.51959,85.22277 -17.65285,-6.993695 c -0.99846,-0.333923 -1.99804,-0.665644 -3.32932,-0.665644 L 90.550037,76.897787 84.888736,62.910406 c 2.997612,-1.665219 5.662398,-2.997612 7.660443,-3.663256 1.331288,-0.666749 2.663681,-1.665219 3.662151,-2.664794 l 8.6589,-10.656943 c 0.99958,-1.332394 0.99958,-3.663257 -0.33281,-4.663929 -1.66742,-0.99847 -3.66216,-0.99847 -4.994555,0.666749 l -8.661107,10.658048 c -0.331721,0.332818 -0.663442,0.665644 -1.330191,0.99847 -2.331968,0.665644 -6.660869,2.997605 -10.658048,4.99565 -4.328908,2.664786 -7.993262,5.662398 -9.324558,7.327617 -0.999567,0.665644 -1.665219,1.664114 -2.33196,2.664786 l -5.993022,12.321058 c -0.666749,1.666324 0,3.663256 1.332393,4.33111 0.333923,0.333923 0.99847,0.333923 1.332393,0.333923 1.332393,0 2.330863,-0.665644 2.996515,-1.998037 l 5.995217,-12.323267 c 0.332826,-0.332826 0.332826,-0.665645 0.665644,-0.999575 0.999575,-0.999568 2.664794,-2.330856 4.996754,-3.99718 l 10.655846,25.311081 c 0.333923,0.33392 0.333923,0.99846 0.333923,1.66632 l 1.330191,18.650213 c 0,1.66521 1.667421,3.33043 3.331535,3.33043 1.998045,0 3.329333,-1.66742 3.329333,-3.33043 L 96.878079,93.552157 c 0,-1.33239 -0.336133,-2.664787 -0.666749,-4.330006 l -2.331968,-5.662398 10.659148,0.33393 c 0.33283,0 0.66566,0 0.99737,0.332819 l 17.65285,6.994791 c 0.33392,0 0.66564,0.333931 1.33239,0.333931 1.33239,0 2.66479,-0.665652 2.99651,-1.998045 0.33282,-1.669623 -0.33172,-3.668765 -1.99804,-4.334409">
    </path>
</svg>
