<?xml version='1.0' encoding='UTF-8' standalone='no'?>
<!-- Created with Inkscape (http://www.inkscape.org/) -->
<svg width="200" xmlns:rdf="http://www.w3.org/1999/02/22-rdf-syntax-ns#" version="1.1"
    xmlns="http://www.w3.org/2000/svg" height="200" xmlns:xlink="http://www.w3.org/1999/xlink"
    xmlns:sodipodi="http://sodipodi.sourceforge.net/DTD/sodipodi-0.dtd" xmlns:cc="http://creativecommons.org/ns#"
    sodipodi:docname="multiArrow3.svg" id="svg2" inkscape:version="0.48.4 r9939"
    xmlns:dc="http://purl.org/dc/elements/1.1/" xmlns:svg="http://www.w3.org/2000/svg"
    xmlns:inkscape="http://www.inkscape.org/namespaces/inkscape">
    <sodipodi:namedview inkscape:zoom="3.337544" objecttolerance="10" inkscape:window-x="-8" inkscape:window-y="-8"
        bordercolor="#666666" id="namedview16" showguides="true" inkscape:pageopacity="0" guidetolerance="10"
        inkscape:window-maximized="1" pagecolor="#ffffff" inkscape:window-width="1920" showgrid="false"
        inkscape:cx="144.84629" inkscape:cy="90.816689" inkscape:guide-bbox="true" inkscape:window-height="1018"
        borderopacity="1" inkscape:pageshadow="2" gridtolerance="10" inkscape:current-layer="svg2">
        <sodipodi:guide position="100.07359,220.82106" id="guide2993" orientation="1,0" />
        <sodipodi:guide position="-120.14823,100.07359" id="guide2995" orientation="0,1" />
    </sodipodi:namedview>
    <defs id="defs4">
        <linearGradient id="linearGradient3784">
            <stop offset="0" style="stop-color:#ff6100;stop-opacity:1" id="stop3792" />
            <stop offset="1" style="stop-color:#ffff00;stop-opacity:0" id="stop3788" />
        </linearGradient>
        <linearGradient id="linearGradient5318" y1="151.23" x1="143.92999" y2="31.045" x2="94.292999"
            gradientUnits="userSpaceOnUse">
            <stop offset="0" style="stop-color:#ffffff;stop-opacity:0" id="stop5314" />
            <stop offset="1" style="stop-color:#ffff00;stop-opacity:1" id="stop5316" />
        </linearGradient>
        <linearGradient id="linearGradient3790" xlink:href="#linearGradient3784" y1="930.89813" x1="65.347122"
            y2="930.89813" x2="164.68407" gradientUnits="userSpaceOnUse" />
        <linearGradient id="linearGradient3790-1" xlink:href="#linearGradient3784-7" y1="930.89813" x1="65.347122"
            y2="930.89813" x2="164.68407" gradientUnits="userSpaceOnUse" />
        <linearGradient id="linearGradient3784-7">
            <stop offset="0" style="stop-color:#ff6100;stop-opacity:1" id="stop3792-4" />
            <stop offset="1" style="stop-color:#ffff00;stop-opacity:0" id="stop3788-0" />
        </linearGradient>
        <linearGradient id="linearGradient3790-4" xlink:href="#linearGradient3784-8" y1="930.89813" x1="65.347122"
            y2="930.89813" x2="164.68407" gradientUnits="userSpaceOnUse" />
        <linearGradient id="linearGradient3784-8">
            <stop offset="0" style="stop-color:#ff6100;stop-opacity:1" id="stop3792-8" />
            <stop offset="1" style="stop-color:#ffff00;stop-opacity:0" id="stop3788-2" />
        </linearGradient>
        <linearGradient inkscape:collect="always" xlink:href="#linearGradient3784" id="linearGradient3065"
            y1="930.89813" x1="65.347122" y2="930.89813" gradientUnits="userSpaceOnUse" x2="164.68407" />
        <linearGradient id="linearGradient3790-5" xlink:href="#linearGradient3784-5" y1="930.89813" x1="65.347122"
            y2="930.89813" x2="164.68407" gradientUnits="userSpaceOnUse" />
        <linearGradient id="linearGradient3784-5">
            <stop offset="0" style="stop-color:#ff6100;stop-opacity:1" id="stop3792-1" />
            <stop offset="1" style="stop-color:#ffff00;stop-opacity:0" id="stop3788-7" />
        </linearGradient>
        <linearGradient inkscape:collect="always" xlink:href="#linearGradient3784-5" id="linearGradient3065-1"
            y1="930.89813" x1="65.347122" y2="930.89813" gradientUnits="userSpaceOnUse" x2="164.68407" />
        <linearGradient id="linearGradient3082">
            <stop offset="0" style="stop-color:#ff6100;stop-opacity:1" id="stop3084" />
            <stop offset="1" style="stop-color:#ffff00;stop-opacity:0" id="stop3086" />
        </linearGradient>
        <linearGradient id="linearGradient3790-2" xlink:href="#linearGradient3784-76" y1="930.89813" x1="65.347122"
            y2="930.89813" x2="164.68407" gradientUnits="userSpaceOnUse" />
        <linearGradient id="linearGradient3784-76">
            <stop offset="0" style="stop-color:#ff6100;stop-opacity:1" id="stop3792-14" />
            <stop offset="1" style="stop-color:#ffff00;stop-opacity:0" id="stop3788-23" />
        </linearGradient>
        <linearGradient inkscape:collect="always" xlink:href="#linearGradient3784-76" id="linearGradient3065-2"
            y1="930.89813" x1="65.347122" y2="930.89813" gradientUnits="userSpaceOnUse" x2="164.68407" />
        <linearGradient id="linearGradient3134">
            <stop offset="0" style="stop-color:#ff6100;stop-opacity:1" id="stop3136" />
            <stop offset="1" style="stop-color:#ffff00;stop-opacity:0" id="stop3138" />
        </linearGradient>
        <linearGradient inkscape:collect="always" xlink:href="#linearGradient3784-85" id="linearGradient3065-6"
            y1="930.89813" x1="65.347122" y2="930.89813" gradientUnits="userSpaceOnUse" x2="164.68407" />
        <linearGradient id="linearGradient3784-85">
            <stop offset="0" style="stop-color:#ff6100;stop-opacity:1" id="stop3792-7" />
            <stop offset="1" style="stop-color:#ffff00;stop-opacity:0" id="stop3788-6" />
        </linearGradient>
        <linearGradient inkscape:collect="always"
            gradientTransform="matrix(-1.9485394,0,0,1.9485394,323.01124,-50.848119)" id="linearGradient3186"
            xlink:href="#linearGradient3784-85" y1="930.89813" y2="930.89813" x1="65.347122" x2="164.68407"
            gradientUnits="userSpaceOnUse" />
    </defs>
    <g style="fill:url(#linearGradient3790);fill-opacity:1" id="layer1"
        transform="matrix(1.9485394,0,0,1.9485394,-122.85339,-1711.7116)" />
    <msbl xOrigin="0.5" Type="multiarrow" yOrigin="0.5" Name="" id="dsc2994" />
    <_3D Model="test.3ds" id="_3D3024" />
    <g style="fill:url(#linearGradient3790-5);fill-opacity:1" id="layer1-1"
        transform="matrix(-1.9485394,0,0,1.9485394,323.34532,-1711.3133)" />
    <g style="fill:url(#linearGradient3790-2);fill-opacity:1" id="layer1-2"
        transform="matrix(-1.9485394,0,0,1.9485394,323.03739,-1711.7007)" />
    <path sodipodi:nodetypes="czscccccssscccccscscccccssscccccszc" inkscape:connector-curvature="0"
        style="fill:url(#linearGradient3186);fill-opacity:1;fill-rule:nonzero;stroke:#f50c08;stroke-width:1.94853938px;stroke-linecap:butt;stroke-linejoin:miter"
        id="path5264-1"
        d="m 191.31129,152.68501 c 2.75424,-4.66102 5.5717,-29.60464 2.26673,-47.2134 C 190.27305,87.862846 181.8141,75.270304 170.18324,66.076577 162.62613,60.102987 152.60492,54.510293 152.0377,54.06912 l 11.24294,-3.371094 -38.74082,-8.966412 22.72612,29.136254 0.29358,-9.686189 c 0,0 7.85458,7.689739 12.1865,15.253223 9.83625,17.173982 9.67929,31.503388 2.21539,38.223218 -4.97296,4.47719 -15.27065,5.88239 -25.17508,-4.39257 -6.18079,-6.412 -12.97747,-23.072756 -12.97747,-23.072756 l 8.80855,1.813725 -21.01613,-24.150493 -0.64187,31.502122 5.36293,-6.757482 c 0.0493,0.345692 4.12629,14.294934 2.15341,25.170114 -1.06223,5.85538 -5.34026,17.8248 -18.39682,18.52613 -13.056564,-0.70352 -17.334601,-12.67294 -18.396828,-18.52833 -1.972877,-10.87517 2.104111,-24.824412 2.153409,-25.170104 l 5.362926,6.757482 -0.641869,-31.502122 -21.016125,24.150493 8.808545,-1.813726 c 0,0 -6.79668,16.660757 -12.977463,23.072757 -9.904433,10.27495 -20.202123,8.86976 -25.175082,4.39256 C 30.732537,107.9361 30.575577,93.606693 40.411831,76.432711 44.743753,68.869228 52.598329,61.179489 52.598329,61.179489 L 52.89191,70.865678 75.618033,41.729424 36.877212,50.695836 48.120155,54.06693 C 47.552933,54.508103 37.531722,60.100797 29.974614,66.074387 18.343755,75.268114 9.8848006,87.860655 6.5798322,105.46942 c -3.3049683,17.60875 0.1480879,43.39983 2.266732,47.21339" />
</svg>