<?xml version='1.0' encoding='UTF-8' standalone='no'?>
<!-- Created with Inkscape (http://www.inkscape.org/) -->
<svg width="200" xmlns:rdf="http://www.w3.org/1999/02/22-rdf-syntax-ns#" version="1.1"
    xmlns="http://www.w3.org/2000/svg" height="200" xmlns:xlink="http://www.w3.org/1999/xlink"
    xmlns:cc="http://creativecommons.org/ns#" id="svg2" xmlns:dc="http://purl.org/dc/elements/1.1/"
    xmlns:svg="http://www.w3.org/2000/svg">
    <defs id="defs4">
        <linearGradient id="linearGradient3784">
            <stop offset="0" style="stop-color:#ff6100;stop-opacity:1" id="stop3792" />
            <stop offset="1" style="stop-color:#ffff00;stop-opacity:0" id="stop3788" />
        </linearGradient>
        <linearGradient id="linearGradient5318" y1="151.23" x1="143.92999" y2="31.045" x2="94.292999"
            gradientUnits="userSpaceOnUse">
            <stop offset="0" style="stop-color:#ffffff;stop-opacity:0" id="stop5314" />
            <stop offset="1" style="stop-color:#ffff00;stop-opacity:1" id="stop5316" />
        </linearGradient>
        <linearGradient id="linearGradient3790" xlink:href="#linearGradient3784" y1="930.89813" x1="65.347122"
            y2="930.89813" x2="164.68407" gradientUnits="userSpaceOnUse" />
    </defs>
    <g style="fill:url(#linearGradient3790);fill-opacity:1" id="layer1"
        transform="matrix(1.9485394,0,0,1.9485394,-122.85339,-1718.6029)">
        <path
            style="fill:url(#linearGradient3790);fill-opacity:1;fill-rule:nonzero;stroke:#f50c08;stroke-width:1px;stroke-linecap:butt;stroke-linejoin:miter"
            id="path5264"
            d="m 81.432,117.14 c 0,0 -18.602,-10.423 -15.16,-38.905 C 68.414,60.506 81.864,51.23 81.864,51.23 l -6.6475,-1.0513 21.078,-7.0355 -11.483,16.708 0.0031,-4.971 c 0,0 -3.4847,4.1561 -5.1778,8.9044 -5.4244,15.213 10.836,32.832 31.214,32.72 20.824,-0.11433 31.422,-20.613 24.212,-37.466 -2.1199,-4.9549 -5.845,-8.4926 -5.845,-8.4926 l 0.24618,6.1589 -7.141,-16.773 17.716,7.7077 -6.0386,0.17618 c 0,0 15.365,8.5196 25.46,29.91 6.2862,13.32 4.4845,22.815 4.4845,22.815"
            transform="translate(0,852.36218)" />
    </g>
    <msbl xOrigin="0.5" Type="doublearrow" yOrigin="0.5" Name="" id="dsc2994" />
    <_3D Model="test.3ds" id="_3D3024" />
</svg>