<?xml version='1.0' encoding='UTF-8' standalone='no'?><!-- Created with Inkscape (http://www.inkscape.org/) -->
<svg width="200"
    xmlns:rdf="http://www.w3.org/1999/02/22-rdf-syntax-ns#" version="1.1"
    xmlns="http://www.w3.org/2000/svg" height="200"
    xmlns:sodipodi="http://sodipodi.sourceforge.net/DTD/sodipodi-0.dtd"
    xmlns:cc="http://creativecommons.org/ns#" sodipodi:docname="04011101.svg" id="svg2" inkscape:version="0.91 r13725"
    xmlns:dc="http://purl.org/dc/elements/1.1/"
    xmlns:svg="http://www.w3.org/2000/svg"
    xmlns:inkscape="http://www.inkscape.org/namespaces/inkscape">
    <sodipodi:namedview inkscape:zoom="3.337544" objecttolerance="10" inkscape:window-x="-8" inkscape:window-y="-8" bordercolor="#666666" id="namedview11" inkscape:pageopacity="0" guidetolerance="10" inkscape:window-maximized="1" pagecolor="#ffffff" inkscape:window-width="1920" showgrid="false" inkscape:cx="114.20409" inkscape:cy="115.3732" inkscape:window-height="1023" borderopacity="1" inkscape:pageshadow="2" gridtolerance="10" inkscape:current-layer="svg2"/>
    <defs id="defs3009"/>
    <msbl Angle="90" Attitude="1" Type="msbl_KidneyArea" Name="" id="dsc2994" Border_ID="path3000-17"/>
    <_3D Model="" id="_3D3024"/>
    <text x="84.268074" y="92.17057" sodipodi:linespacing="125%" RelativeToBorder="Forward" style="font-style:normal;font-weight:normal;font-size:15.86400509px;line-height:125%;font-family:Arial;letter-spacing:0px;word-spacing:0px;fill:#000000;fill-opacity:1;stroke:none" id="text3916" xml:space="preserve">
        <tspan x="84.268074" y="92.17057" id="tspan3918">PBQ</tspan>
    </text>
    <text x="76.669983" y="120" sodipodi:linespacing="125%" RelativeToBorder="Forward" style="font-style:normal;font-weight:normal;font-size:15.34123993px;line-height:125%;font-family:Arial;letter-spacing:0px;word-spacing:0px;fill:#000000;fill-opacity:1;stroke:none" id="text3920" xml:space="preserve">
        <tspan x="76.669983" y="120" id="tspan3922">12JHS</tspan>
    </text>
    <path RelativeToBorder="Forward" inkscape:connector-curvature="0" style="fill:none;stroke:#ff0000;stroke-width:4;stroke-linecap:butt;stroke-linejoin:miter;stroke-miterlimit:4;stroke-dasharray:none;stroke-opacity:1" id="path4158" d="m 74.302657,100.67669 53.682983,0"/>
    <path RelativeToBorder="Forward" inkscape:connector-curvature="0" style="fill:none;stroke:#ff0000;stroke-width:4;stroke-linecap:butt;stroke-linejoin:miter;stroke-miterlimit:4;stroke-dasharray:none;stroke-opacity:1" id="path4144" d="m 148.00422,116.29397 c 0,2.46359 -1.99714,4.46073 -4.46073,4.46073 -2.4636,0 -4.46073,-1.99714 -4.46073,-4.46073 0,-2.4636 1.99713,-4.46074 4.46073,-4.46074 2.46359,0 4.46073,1.99714 4.46073,4.46074 z m -4.49156,-34.165974 0,30.826094 m 7.18387,-23.207446 0,15.652546 m -14.30609,-15.652546 0,15.652546"/>
    <path RelativeToBorder="Forward" inkscape:connector-curvature="0" style="fill:none;stroke:#ff0000;stroke-width:4;stroke-linecap:butt;stroke-linejoin:miter;stroke-miterlimit:4;stroke-dasharray:none;stroke-opacity:1" id="path3910" d="m 49.533888,120.42809 13.467685,0 m -6.418942,-38.389596 0,36.355096 m 8.472386,-27.369962 0,18.460002 m -16.872042,-18.460002 0,18.460002"/>
    <path inkscape:connector-curvature="0" style="fill:none;stroke:#ff0000;stroke-width:10;stroke-linecap:butt;stroke-linejoin:miter;stroke-miterlimit:4;stroke-dasharray:none;stroke-opacity:1" id="path3000-17" d="M 37.552778,62.438014 C 50.283257,51.806911 70.89181,42.184762 100.46748,42.184762 c 29.57566,0 46.87691,9.763928 59.84468,18.644612 12.96783,8.880683 26.81664,27.586274 27.98435,45.407416 1.16774,17.82116 -8.45405,42.78268 -26.79788,50.9123 -18.34376,8.12967 -39.30291,-11.27115 -61.03115,-11.45677 C 78.739221,145.50683 54.891464,165.36225 36.566566,156.1839 18.241713,147.00559 10.700417,125.70562 12.065129,106.55853 13.429844,87.411428 24.822298,73.069159 37.552778,62.438014 Z"/>
</svg>