<?xml version='1.0' encoding='UTF-8' standalone='no'?><!-- Created with Inkscape (http://www.inkscape.org/) -->
<svg width="200"
    xmlns:rdf="http://www.w3.org/1999/02/22-rdf-syntax-ns#" version="1.1"
    xmlns="http://www.w3.org/2000/svg" height="200"
    xmlns:sodipodi="http://sodipodi.sourceforge.net/DTD/sodipodi-0.dtd"
    xmlns:cc="http://creativecommons.org/ns#" sodipodi:docname="04010700.svg" id="svg2" inkscape:version="0.91 r13725"
    xmlns:dc="http://purl.org/dc/elements/1.1/"
    xmlns:svg="http://www.w3.org/2000/svg"
    xmlns:inkscape="http://www.inkscape.org/namespaces/inkscape">
    <sodipodi:namedview inkscape:zoom="4.72" objecttolerance="10" inkscape:window-x="-8" inkscape:window-y="-8" bordercolor="#666666" id="namedview7" inkscape:pageopacity="0" guidetolerance="10" inkscape:window-maximized="1" pagecolor="#ffffff" inkscape:window-width="1920" showgrid="false" inkscape:cx="61.303008" inkscape:cy="115.36854" inkscape:window-height="1023" borderopacity="1" inkscape:pageshadow="2" gridtolerance="10" inkscape:current-layer="svg2"/>
    <defs id="defs3009"/>
    <msbl Angle="90" Attitude="1" Type="msbl_KidneyArea" Name="" id="dsc2994" Border_ID="path4140"/>
    <_3D Model="" id="_3D3024"/>
    <path inkscape:connector-curvature="0" style="fill:none;stroke:#ff0000;stroke-width:10;stroke-linecap:butt;stroke-linejoin:miter;stroke-miterlimit:4;stroke-dasharray:none;stroke-opacity:1" id="path4140" d="m 56.962055,129.85482 c 8.739964,7.20771 22.888528,13.73136 43.193365,13.73136 20.30484,0 32.1828,-6.61977 41.08568,-12.64072 8.90289,-6.02095 18.41064,-18.70303 19.21232,-30.78546 0.8017,-12.082436 -5.80402,-29.005912 -18.39777,-34.517656 -12.59369,-5.511773 -26.98296,7.64165 -41.90023,7.767496 C 85.238132,73.535601 68.86573,60.073964 56.284984,66.296728 43.704268,72.519463 38.526879,86.960476 39.463805,99.94186 c 0.93693,12.98142 8.758288,22.70523 17.49825,29.91296 z"/>
    <path PartDirection="AdhereToBorder_Outward" origin="160,100" inkscape:connector-curvature="0" style="fill:#ff0000;fill-opacity:1;stroke:none" id="path4143" d="M 159.3427,107.36842 184.19984,99.699241 159.3427,92.330822" angle="0"/>
    <path PartDirection="AdhereToBorder_Outward" origin="100,143" inkscape:connector-curvature="0" style="fill:#ff0000;fill-opacity:1;stroke:none" id="path4141" d="m 107.06767,142.57609 -7.06766,22.15037 -7.067673,-22.15037" angle="270"/>
    <path PartDirection="AdhereToBorder_Outward" origin="100,73" inkscape:connector-curvature="0" style="fill:#ff0000;fill-opacity:1;stroke:none" id="path4139" d="M 107.06767,74.50052 100,52.049385 92.932333,74.50052" angle="90"/>
    <path PartDirection="AdhereToBorder_Outward" origin="39,100" inkscape:connector-curvature="0" style="fill:#ff0000;fill-opacity:1;stroke:none" id="path3784" d="m 40.622952,92.631578 -23.849623,7.36842 23.849623,7.368422" angle="180"/>
</svg>