<?xml version='1.0' encoding='UTF-8' standalone='no'?><!-- Created with Inkscape (http://www.inkscape.org/) -->
<svg width="200"
    xmlns:rdf="http://www.w3.org/1999/02/22-rdf-syntax-ns#" version="1.1"
    xmlns="http://www.w3.org/2000/svg" height="200"
    xmlns:sodipodi="http://sodipodi.sourceforge.net/DTD/sodipodi-0.dtd"
    xmlns:cc="http://creativecommons.org/ns#" sodipodi:docname="04010800.svg" id="svg2" inkscape:version="0.91 r13725"
    xmlns:dc="http://purl.org/dc/elements/1.1/"
    xmlns:svg="http://www.w3.org/2000/svg"
    xmlns:inkscape="http://www.inkscape.org/namespaces/inkscape">
    <sodipodi:namedview inkscape:zoom="4.72" objecttolerance="10" inkscape:window-x="-8" inkscape:window-y="-8" bordercolor="#666666" id="namedview7" inkscape:pageopacity="0" guidetolerance="10" inkscape:window-maximized="1" pagecolor="#ffffff" inkscape:window-width="1920" showgrid="false" inkscape:cx="98.277187" inkscape:cy="86.744656" inkscape:window-height="1023" borderopacity="1" inkscape:pageshadow="2" gridtolerance="10" inkscape:current-layer="svg2"/>
    <defs id="defs3009"/>
    <msbl Angle="90" Attitude="1" Type="msbl_KidneyArea" Name="" id="dsc2994" Border_ID="path3000-17"/>
    <_3D Model="" id="_3D3024"/>
    <path PartDirection="Forward" sodipodi:nodetypes="cccc" KeepColor="1"  inkscape:connector-curvature="0" style="fill:none;stroke:#0000ff;stroke-width:6;stroke-linecap:butt;stroke-linejoin:miter;stroke-miterlimit:4;stroke-dasharray:none;stroke-opacity:1" id="path3889-1" d="M 100,120 82,82 c 4.106285,-20.799539 31.15729,-20.953194 36,0 z"/>  
    <path style="fill:none;stroke:#ff0000;stroke-width:9.99999905;stroke-linecap:butt;stroke-linejoin:miter;stroke-miterlimit:4;stroke-opacity:1;stroke-dasharray:none" id="path3000-17" d="M 36.525834,61.072017 C 49.465161,50.261745 70.411808,40.477426 100.47268,40.477426 c 30.06087,0 47.64595,9.928485 60.82646,18.958839 13.18056,9.030352 27.25658,28.051184 28.44343,46.172685 1.18691,18.1215 -8.59272,43.50371 -27.2375,51.77034 -18.64469,8.26667 -39.9477,-11.46113 -62.03239,-11.64987 C 78.387958,145.5408 54.148968,165.73086 35.523443,156.39783 16.897963,147.06484 9.232949,125.40588 10.620048,105.93612 12.007152,86.466307 23.586504,71.88233 36.525834,61.072017 z"/>
</svg>