<?xml version="1.0" encoding="UTF-8" standalone="no"?>
<svg width="200" version="1.1" height="200" id="svg2" xmlns="http://www.w3.org/2000/svg">
   <msbl Angle="90" Attitude="1" Type="msbl_KidneyArea" Name="" id="dsc2994" Border_ID="path4140" />
   <_3D Model="" id="_3D3024" />
   <path
      style="fill:none;stroke:#ff0000;stroke-width:10;stroke-linecap:butt;stroke-linejoin:miter;stroke-miterlimit:4;stroke-dasharray:none;stroke-opacity:1"
      id="path4140"
      d="m 32.385784,149.55821 c 8.739964,7.20771 63.142765,-4.91271 83.447606,-4.91271 20.30484,0 43.62348,8.21074 52.52636,2.18979 8.90289,-6.02095 -8.70801,-34.59286 -7.90633,-46.67529 0.8017,-12.082436 8.17903,-49.344895 -4.41472,-54.856639 -12.59369,-5.511773 -40.33042,30.311141 -55.24769,30.436987 -14.917285,0.125761 -49.72189,-32.615537 -62.302636,-26.392773 -12.580716,6.222735 1.73342,38.03663 2.670346,51.018015 0.93693,12.98142 -17.512898,41.98489 -8.772936,49.19262 z" />
   <path PartDirection="AdhereToBorder_Outward" origin="160,100" style="stroke:#ff0000;stroke-width:3px;fill:none;"
      id="path4143" d="M 159.3427,107.36842 184.19984,99.699241 159.3427,92.330822" angle="0" />
   <path PartDirection="AdhereToBorder_Outward" origin="100,143" style="stroke:#ff0000;stroke-width:3px;fill:none;"
      id="path4141" d="m 107.06767,142.57609 -7.06766,22.15037 -7.067673,-22.15037" angle="270" />
   <path PartDirection="AdhereToBorder_Outward" origin="100,73" style="stroke:#ff0000;stroke-width:3px;fill:none;"
      id="path4139" d="M 107.06767,74.50052 100,52.049385 92.932333,74.50052" angle="90" />
   <path PartDirection="AdhereToBorder_Outward" origin="39,100" style="stroke:#ff0000;stroke-width:3px;fill:none;"
      id="path3784" d="m 40.622952,92.631578 -23.849623,7.36842 23.849623,7.368422" angle="180" />
</svg>