<svg width="200" height="200" version="1.1" xmlns="http://www.w3.org/2000/svg"
    xmlns:zondyPlotSymbol="https://www.mapgis.com" xmlns:zondyPlotSymbolItem="https://www.mapgis.com"
    zondyPlotSymbol:version="1.0" zondyPlotSymbol:id="57" zondyPlotSymbol:name="" zondyPlotSymbol:desc=""
    zondyPlotSymbol:type="simplepoint" zondyPlotSymbol:pose="0">
    <path style="fill:none;stroke:#ff0000;stroke-width:3px;stroke-linecap:butt;stroke-linejoin:miter;stroke-opacity:1"
        id="path12770"
        d="M 20,45 C 20.495465,32.28975 26.481154,22.767308 45,20 h 110 c 14.49953,2.124074 23.28364,12.274698 25,25 v 110 c -0.12761,16.70652 -9.93547,23.53523 -25,25 H 45 C 30.901209,177.92915 21.587278,170.66095 20,155 Z">
    </path><text
        style="font-style:normal;font-weight:600;font-size:35.3837px;line-height:1.25;font-family:sans-serif;fill:#ff0000;fill-opacity:1;stroke:none;stroke-width:0.884593"
        id="text1967" transform="scale(1.0032153,0.996795)" x="27.721573" y="161.49486">
        <tspan id="tspan1965" x="27.721573" y="161.49486">气象灾害</tspan>
    </text>
    <path
        style="fill:#ff0000;stroke:#ff0000;stroke-width:0.0275044px;stroke-linecap:butt;stroke-linejoin:miter;stroke-opacity:1"
        id="path7"
        d="m 73.983399,81.519548 q -0.07762,-0.698594 -0.116433,-1.397183 -0.03881,-0.698594 -0.03881,-1.397188 0,-4.036315 1.513618,-7.606901 1.513619,-3.570585 4.15275,-6.209717 2.639127,-2.639127 6.170903,-4.152745 3.531775,-1.513623 7.56809,-1.513623 3.104862,0 5.899233,0.931459 2.79437,0.931459 5.16182,2.561506 2.36746,1.630054 4.15275,3.881076 1.7853,2.251022 2.87199,4.890149 -2.01815,0.232864 -3.91988,0.620974 -1.90172,0.388104 -3.68702,0.853834 -1.55242,-2.794372 -4.269179,-4.502045 -2.716748,-1.707673 -6.209714,-1.707673 -2.483887,0 -4.618474,0.931459 -2.134592,0.931459 -3.76464,2.561507 -1.630053,1.630053 -2.561507,3.80345 -0.931459,2.173403 -0.931459,4.65729 v 0.620969 q 0,0.31049 0.07762,0.698594 -1.164319,0.155245 -2.639127,0.50454 -1.474809,0.349299 -3.648209,0.737404 z M 66.143632,58.543602 q -1.474807,-1.397189 -1.474807,-3.415346 0,-2.018158 1.474807,-3.415341 1.397186,-1.474808 3.415344,-1.474808 2.018158,0 3.415344,1.474808 l 3.415344,3.415341 q 1.474807,1.397188 1.474807,3.415346 0,2.018157 -1.474807,3.492965 -1.397187,1.397184 -3.415344,1.397184 -2.018158,0 -3.415344,-1.397184 z m 27.089885,-4.11394 q -2.018157,0 -3.415346,-1.435993 -1.397183,-1.435999 -1.397183,-3.454156 v -4.890154 q 0,-2.018158 1.397183,-3.415341 1.397189,-1.397188 3.415346,-1.397188 2.018158,0 3.454156,1.397188 1.435998,1.397183 1.435998,3.415341 v 4.890154 q 0,2.018157 -1.435998,3.454156 -1.435998,1.435993 -3.454156,1.435993 z m 23.596923,7.762145 q -1.39719,1.397188 -3.41535,1.397188 -2.01816,0 -3.49296,-1.397188 -1.39719,-1.474808 -1.39719,-3.492966 0,-2.018157 1.39719,-3.41534 l 3.49296,-3.415346 q 1.39719,-1.474808 3.41535,-1.474808 2.01815,0 3.41534,1.474808 1.47481,1.397188 1.47481,3.415346 0,2.018157 -1.47481,3.41534 z m 1.94053,11.643221 q 5.51113,0 9.31458,1.358373 3.80345,1.358373 6.36496,3.570586 2.5615,2.212212 4.03631,5.084203 1.47481,2.871997 2.21221,5.821614 0.73741,2.94961 0.93146,5.74398 0.19406,2.79438 0.19406,4.967776 0,3.2601 -1.436,6.36496 -1.436,3.10484 -4.15275,5.51112 -2.71675,2.40628 -6.59782,3.84226 -3.88107,1.43597 -8.77123,1.43597 H 81.900786 q -4.890151,0 -8.305495,-1.28071 -3.415343,-1.28077 -5.511123,-3.41537 -2.095779,-2.1346 -3.027236,-4.92897 -0.931458,-2.79433 -0.931458,-5.89921 0,-3.104856 1.203133,-5.860416 1.203132,-2.75557 3.260101,-4.85134 2.056968,-2.09578 4.81253,-3.29891 2.755561,-1.203137 5.938041,-1.203137 4.502045,0 8.11144,2.328637 3.609396,2.32865 5.472314,6.1321 0,-3.80345 1.397183,-7.645713 1.397188,-3.84226 4.463234,-6.908307 3.06605,-3.066046 7.99501,-4.967774 4.92896,-1.901722 11.99251,-1.901722 z m -49.832966,4.890149 q 0,2.018157 -1.397185,3.415346 -1.397187,1.397183 -3.415344,1.397183 h -4.890152 q -2.018157,0 -3.415344,-1.397183 -1.397185,-1.397189 -1.397185,-3.415346 0,-2.018158 1.397185,-3.454156 1.397187,-1.435993 3.415344,-1.435993 h 4.890152 q 2.018157,0 3.415344,1.435993 1.397185,1.435998 1.397185,3.454156 z">
    </path>
</svg>
