<?xml version="1.0" encoding="UTF-8"?>
<!DOCTYPE svg PUBLIC "-//W3C//DTD SVG 1.1//EN" "http://www.w3.org/Graphics/SVG/1.1/DTD/svg11.dtd">
<!-- Creator: CorelDRAW (评估版) -->
<svg xmlns="http://www.w3.org/2000/svg" xml:space="preserve" width="400px" height="400px" version="1.1"
    style="shape-rendering:geometricPrecision; text-rendering:geometricPrecision; image-rendering:optimizeQuality; fill-rule:evenodd; clip-rule:evenodd"
    viewBox="0 0 400 400" xmlns:xlink="http://www.w3.org/1999/xlink"
    xmlns:xodm="http://www.corel.com/coreldraw/odm/2003" xmlns:zondyPlotSymbol="https://www.mapgis.com"
    xmlns:zondyPlotSymbolItem="https://www.mapgis.com" zondyPlotSymbol:version="1.0" zondyPlotSymbol:id="svg003"
    zondyPlotSymbol:name="" zondyPlotSymbol:desc="" zondyPlotSymbol:type="multiarrow">
    <defs>
        <style type="text/css">
            <![CDATA[
            .str0 {
                stroke: #ED3237;
                stroke-width: 5.91;
                stroke-miterlimit: 22.9256
            }

            .fil0 {
                fill: none
            }
            ]]>
        </style>
    </defs>
    <g id="图层_x0020_1">
        <metadata id="CorelCorpID_0Corel-Layer" />
        <path class="fil0 str0"
            d="M292.07 345.08c-13.14,-11.05 -29.44,-20.53 -51.14,-29.68m-69.56 -110.84l-19.85 -2.74 6.27 6.97 -63.84 -14.74 64.81 -12.83 -7.04 7.01 19.78 -3.07m11.08 -3.47c13.33,-5.52 22.37,-14.43 24.8,-24.29m-0.04 -11.2c-2.57,-10.74 -12.03,-21.31 -25.87,-27.99m-9.36 -3.33l-19.83 -2.46 6.69 6.64 -64.51 -13.08 64.14 -14.41 -6.3 6.68 18.9 -2.25m11.15 -1.7c16.27,-2.98 31.93,-7.55 46.6,-13.24m12.78 -5.34c20.07,-9 37.94,-20.01 52.55,-31.67m-65.53 266.24c-15.36,-5.93 -29.5,-9.7 -45.9,-13.47m-11.48 -1.76l-19.85 -2.74 6.27 6.98 -63.84 -14.75 64.81 -12.83 -7.04 7.01 19.78 -3.06m11.08 -3.47c13.33,-5.53 22.37,-14.44 24.8,-24.3m-0.04 -11.2c-2.57,-10.74 -12.03,-21.31 -25.87,-27.98" />
    </g>
</svg>