<svg t="1651025468244" class="icon" viewBox="0 0 1024 1024" version="1.1" xmlns="http://www.w3.org/2000/svg" p-id="5057" width="400" height="400"><path d="M926.72 225.28a46.08 46.08 0 1 1 0 92.16H849.92v583.68a61.44 61.44 0 0 1-61.44 61.44H235.52a61.44 61.44 0 0 1-61.44-61.44V317.44H97.28a46.08 46.08 0 1 1 0-92.16h829.44z m-522.24 184.32a46.08 46.08 0 0 0-46.0288 43.90912L358.4 455.68v276.48a46.08 46.08 0 0 0 92.1088 2.17088L450.56 732.16v-276.48a46.08 46.08 0 0 0-46.08-46.08z m215.04 0a46.08 46.08 0 0 0-46.0288 43.90912L573.44 455.68v276.48a46.08 46.08 0 0 0 92.1088 2.17088L665.6 732.16v-276.48a46.08 46.08 0 0 0-46.08-46.08z" fill="#e6e6e6" p-id="5058"></path><path d="M266.24 71.68m46.08 0l399.36 0q46.08 0 46.08 46.08l0 0q0 46.08-46.08 46.08l-399.36 0q-46.08 0-46.08-46.08l0 0q0-46.08 46.08-46.08Z" fill="#e6e6e6" p-id="5059"></path></svg>