<svg t="1651053039626" class="icon" viewBox="0 0 1024 1024" version="1.1" xmlns="http://www.w3.org/2000/svg" p-id="7588" width="400" height="400"><path d="M118.806354 800.11965L328.9794 796.829985a82.972664 82.972664 0 0 0 56.655343-23.027655l394.028773-380.139076-285.104307-276.331866L100.530437 497.470463a78.951962 78.951962 0 0 0-24.124211 54.827751L73.116561 755.891931a49.710494 49.710494 0 0 0 45.689793 44.227719zM870.677583 307.400925a103.441691 103.441691 0 0 0 0-149.86252L739.09098 31.069059a112.579649 112.579649 0 0 0-154.24874 0l-54.462233 51.538086 286.56638 276.331867z m-2.19311 557.415472H155.358188a79.682999 79.682999 0 1 0 0 159.000478h713.126285a79.682999 79.682999 0 1 0 0-159.000478z" fill="#e6e6e6" p-id="7589"></path></svg>