<svg t="1651807773896" class="icon" viewBox="0 0 1024 1024" version="1.1" xmlns="http://www.w3.org/2000/svg" p-id="6961" width="400" height="400"><path d="M507.448889 70.542222c-245.76 0-443.733333 197.973333-443.733333 443.733334s200.248889 443.733333 443.733333 443.733333c245.76 0 443.733333-197.973333 443.733333-443.733333 0-243.484444-197.973333-443.733333-443.733333-443.733334z m248.035555 477.866667h-213.902222v213.902222c0 18.204444-15.928889 34.133333-34.133333 34.133333s-34.133333-15.928889-34.133333-34.133333v-213.902222h-213.902223c-18.204444 0-34.133333-15.928889-34.133333-34.133333s15.928889-34.133333 34.133333-34.133334h213.902223v-213.902222c0-18.204444 15.928889-34.133333 34.133333-34.133333s34.133333 15.928889 34.133333 34.133333v213.902222h213.902222c18.204444 0 34.133333 15.928889 34.133334 34.133334s-13.653333 34.133333-34.133334 34.133333z" fill="#1890FF" p-id="6962"></path></svg>